M48
; DRILL file {KiCad (5.1.6-0-10_14)} date Wednesday, October 14, 2020 at 04:24:03 PM
; FORMAT={-:-/ absolute / inch / decimal}
; #@! TF.CreationDate,2020-10-14T16:24:03+01:00
; #@! TF.GenerationSoftware,Kicad,Pcbnew,(5.1.6-0-10_14)
; #@! TF.FileFunction,Plated,1,2,PTH
FMAT,2
INCH
T1C0.0157
T2C0.0236
T3C0.0276
T4C0.0315
T5C0.0394
T6C0.0433
T7C0.0591
%
G90
G05
T1
X2.05Y-1.62
X1.5327Y-0.998
X1.5329Y-1.0502
X1.5661Y-0.998
X1.5663Y-1.0502
X1.5996Y-0.998
X1.5998Y-1.0502
X1.6331Y-0.998
X1.6333Y-1.0502
X1.6665Y-0.998
X1.6667Y-1.0502
X1.7Y-0.998
X1.7002Y-1.0502
X1.7335Y-0.998
X1.7337Y-1.0502
X1.7671Y-0.998
X1.7671Y-1.0502
T2
X2.23Y-1.36
X2.23Y-1.4191
T3
X1.29Y-1.56
X1.59Y-1.56
X1.91Y-1.0
X1.91Y-1.3
X1.39Y-1.0
X1.39Y-1.3
X1.19Y-2.2
X1.19Y-2.5
X1.71Y-1.56
X2.01Y-1.56
X1.29Y-1.77
X1.59Y-1.77
T4
X4.26Y-2.08
X4.26Y-2.28
X1.82Y-1.725
X1.82Y-1.825
X1.82Y-1.925
X1.82Y-2.025
X1.82Y-2.125
X1.82Y-2.225
X1.82Y-2.325
X1.82Y-2.425
X1.82Y-2.525
X1.82Y-2.625
X1.82Y-2.725
X1.82Y-2.825
X1.82Y-2.925
X1.82Y-3.025
X1.82Y-3.125
X1.82Y-3.225
X1.82Y-3.325
X1.82Y-3.425
X1.82Y-3.525
X1.82Y-3.625
X2.42Y-1.725
X2.42Y-1.825
X2.42Y-1.925
X2.42Y-2.025
X2.42Y-2.125
X2.42Y-2.225
X2.42Y-2.325
X2.42Y-2.425
X2.42Y-2.525
X2.42Y-2.625
X2.42Y-2.725
X2.42Y-2.825
X2.42Y-2.925
X2.42Y-3.025
X2.42Y-3.125
X2.42Y-3.225
X2.42Y-3.325
X2.42Y-3.425
X2.42Y-3.525
X2.42Y-3.625
X2.76Y-4.32
X2.76Y-4.52
X3.51Y-3.57
X3.51Y-3.77
X5.01Y-2.45
X5.01Y-2.65
X4.26Y-1.33
X4.26Y-1.53
X1.71Y-1.42
X1.91Y-1.42
X5.01Y-1.33
X5.01Y-1.53
X1.595Y-2.8079
X1.595Y-3.0
X2.76Y-2.83
X2.76Y-3.03
X2.76Y-2.08
X2.76Y-2.28
X2.76Y-1.33
X2.76Y-1.53
X2.14Y-1.2
X2.3369Y-1.2
X2.14Y-1.03
X2.3369Y-1.03
X3.51Y-1.33
X3.51Y-1.53
X3.52Y-2.83
X3.52Y-3.03
X3.51Y-2.08
X3.51Y-2.28
X4.26Y-3.57
X4.26Y-3.77
X4.26Y-4.32
X4.26Y-4.52
X1.37Y-2.7266
X1.37Y-2.825
X5.01Y-3.95
X5.01Y-4.15
X1.37Y-2.9766
X1.37Y-3.075
X1.39Y-1.42
X1.59Y-1.42
X2.76Y-3.57
X2.76Y-3.77
X4.26Y-2.83
X4.26Y-3.03
T5
X1.46Y-2.2
X1.46Y-2.3
X1.46Y-2.4
X1.56Y-2.2
X1.56Y-2.3
X1.56Y-2.4
T6
X1.3641Y-3.68
X1.3641Y-3.8572
X1.62Y-3.68
X1.62Y-3.8572
X1.3541Y-3.2628
X1.3541Y-3.44
X1.61Y-3.2628
X1.61Y-3.44
T7
X5.235Y-3.95
X5.485Y-3.85
X4.485Y-4.325
X4.735Y-4.225
X4.485Y-3.575
X4.735Y-3.475
X4.485Y-2.825
X4.735Y-2.725
X4.485Y-2.075
X4.735Y-1.975
X3.36Y-4.325
X3.61Y-4.225
X4.485Y-1.325
X4.735Y-1.225
X5.235Y-2.45
X5.485Y-2.35
X3.735Y-3.575
X3.985Y-3.475
X3.735Y-2.825
X3.985Y-2.725
X2.985Y-3.575
X3.235Y-3.475
X3.735Y-2.075
X3.985Y-1.975
X3.735Y-1.325
X3.985Y-1.225
X2.985Y-2.825
X3.235Y-2.725
X2.985Y-2.075
X3.235Y-1.975
X5.235Y-1.325
X5.485Y-1.225
X2.985Y-1.325
X3.235Y-1.225
T2
G00X1.4797Y-0.8943
M15
G01X1.4797Y-0.8628
M16
G05
G00X1.4797Y-1.0411
M15
G01X1.4797Y-0.982
M16
G05
G00X1.8203Y-0.8943
M15
G01X1.8203Y-0.8628
M16
G05
G00X1.8203Y-1.0411
M15
G01X1.8203Y-0.982
M16
G05
T0
M30
