%TF.GenerationSoftware,KiCad,Pcbnew,(5.1.6-0-10_14)*%
%TF.CreationDate,2020-10-14T16:23:59+01:00*%
%TF.ProjectId,scarlet-numpad-v1,73636172-6c65-4742-9d6e-756d7061642d,1*%
%TF.SameCoordinates,Original*%
%TF.FileFunction,Soldermask,Top*%
%TF.FilePolarity,Negative*%
%FSLAX46Y46*%
G04 Gerber Fmt 4.6, Leading zero omitted, Abs format (unit mm)*
G04 Created by KiCad (PCBNEW (5.1.6-0-10_14)) date 2020-10-14 16:23:59*
%MOMM*%
%LPD*%
G01*
G04 APERTURE LIST*
%ADD10O,1.500000X1.500000*%
%ADD11C,1.500000*%
%ADD12C,4.200000*%
%ADD13C,2.100000*%
%ADD14O,1.700000X1.700000*%
%ADD15R,1.700000X1.700000*%
%ADD16C,0.750000*%
%ADD17O,1.000000X2.500000*%
%ADD18O,1.000000X1.800000*%
%ADD19C,1.700000*%
%ADD20R,1.300000X1.300000*%
%ADD21C,1.300000*%
%ADD22C,1.800000*%
%ADD23C,2.300000*%
%ADD24C,4.100000*%
%ADD25C,3.150000*%
%ADD26C,1.600000*%
G04 APERTURE END LIST*
D10*
%TO.C,R6*%
X40386000Y-44958000D03*
D11*
X32766000Y-44958000D03*
%TD*%
D10*
%TO.C,R5*%
X43434000Y-39624000D03*
D11*
X51054000Y-39624000D03*
%TD*%
D10*
%TO.C,R4*%
X40386000Y-39624000D03*
D11*
X32766000Y-39624000D03*
%TD*%
D10*
%TO.C,R3*%
X35306000Y-33020000D03*
D11*
X35306000Y-25400000D03*
%TD*%
D10*
%TO.C,R2*%
X48514000Y-33020000D03*
D11*
X48514000Y-25400000D03*
%TD*%
D10*
%TO.C,R1*%
X30226000Y-63500000D03*
D11*
X30226000Y-55880000D03*
%TD*%
D12*
%TO.C,*%
X65000000Y-25400000D03*
%TD*%
%TO.C,*%
X65000000Y-121920000D03*
%TD*%
D13*
%TO.C,Boot*%
X34648000Y-97972000D03*
X34648000Y-93472000D03*
X41148000Y-97972000D03*
X41148000Y-93472000D03*
%TD*%
%TO.C,Reset*%
X34394000Y-87376000D03*
X34394000Y-82876000D03*
X40894000Y-87376000D03*
X40894000Y-82876000D03*
%TD*%
D14*
%TO.C,D19*%
X108204000Y-109728000D03*
D15*
X108204000Y-114808000D03*
%TD*%
D14*
%TO.C,D18*%
X70104000Y-109728000D03*
D15*
X70104000Y-114808000D03*
%TD*%
D14*
%TO.C,D17*%
X127254000Y-100330000D03*
D15*
X127254000Y-105410000D03*
%TD*%
D14*
%TO.C,D16*%
X108204000Y-90678000D03*
D15*
X108204000Y-95758000D03*
%TD*%
D14*
%TO.C,D15*%
X89154000Y-90678000D03*
D15*
X89154000Y-95758000D03*
%TD*%
D14*
%TO.C,D14*%
X70104000Y-90678000D03*
D15*
X70104000Y-95758000D03*
%TD*%
D14*
%TO.C,D13*%
X108204000Y-71882000D03*
D15*
X108204000Y-76962000D03*
%TD*%
D14*
%TO.C,D12*%
X89408000Y-71882000D03*
D15*
X89408000Y-76962000D03*
%TD*%
D14*
%TO.C,D11*%
X70104000Y-71882000D03*
D15*
X70104000Y-76962000D03*
%TD*%
D14*
%TO.C,D10*%
X127254000Y-62230000D03*
D15*
X127254000Y-67310000D03*
%TD*%
D14*
%TO.C,D9*%
X108204000Y-52832000D03*
D15*
X108204000Y-57912000D03*
%TD*%
D14*
%TO.C,D8*%
X89154000Y-52832000D03*
D15*
X89154000Y-57912000D03*
%TD*%
D14*
%TO.C,D7*%
X70104000Y-52832000D03*
D15*
X70104000Y-57912000D03*
%TD*%
D14*
%TO.C,D6*%
X127254000Y-33782000D03*
D15*
X127254000Y-38862000D03*
%TD*%
D14*
%TO.C,D5*%
X108204000Y-33782000D03*
D15*
X108204000Y-38862000D03*
%TD*%
D14*
%TO.C,D4*%
X89154000Y-33782000D03*
D15*
X89154000Y-38862000D03*
%TD*%
D14*
%TO.C,D3*%
X70104000Y-33782000D03*
D15*
X70104000Y-38862000D03*
%TD*%
D14*
%TO.C,D2*%
X35306000Y-36068000D03*
D15*
X40386000Y-36068000D03*
%TD*%
D14*
%TO.C,D1*%
X48514000Y-36068000D03*
D15*
X43434000Y-36068000D03*
%TD*%
D12*
%TO.C,*%
X147320000Y-121920000D03*
%TD*%
%TO.C,*%
X147320000Y-25400000D03*
%TD*%
%TO.C,*%
X30480000Y-25400000D03*
%TD*%
%TO.C,*%
X30480000Y-121920000D03*
%TD*%
D16*
%TO.C,USB1*%
X43185000Y-26674000D03*
X44885000Y-26674000D03*
X44035000Y-26674000D03*
X42335000Y-26674000D03*
X41485000Y-26674000D03*
X40635000Y-26674000D03*
X39785000Y-26674000D03*
X38935000Y-26674000D03*
X44885000Y-25349000D03*
X44030000Y-25349000D03*
X43180000Y-25349000D03*
X42330000Y-25349000D03*
X41480000Y-25349000D03*
X40630000Y-25349000D03*
X39780000Y-25349000D03*
X38930000Y-25349000D03*
D17*
X46235000Y-25694000D03*
X37585000Y-25694000D03*
D18*
X46235000Y-22314000D03*
X37585000Y-22314000D03*
%TD*%
D19*
%TO.C,C1*%
X34798000Y-71755000D03*
X34798000Y-69255000D03*
%TD*%
%TO.C,C2*%
X34798000Y-75605000D03*
X34798000Y-78105000D03*
%TD*%
D20*
%TO.C,C3*%
X56642000Y-34544000D03*
D21*
X56642000Y-36044000D03*
%TD*%
D19*
%TO.C,C4*%
X59356000Y-30480000D03*
X54356000Y-30480000D03*
%TD*%
%TO.C,C5*%
X54356000Y-26162000D03*
X59356000Y-26162000D03*
%TD*%
%TO.C,J1-ISP1*%
G36*
G01*
X36184000Y-56515294D02*
X36184000Y-55244706D01*
G75*
G02*
X36448706Y-54980000I264706J0D01*
G01*
X37719294Y-54980000D01*
G75*
G02*
X37984000Y-55244706I0J-264706D01*
G01*
X37984000Y-56515294D01*
G75*
G02*
X37719294Y-56780000I-264706J0D01*
G01*
X36448706Y-56780000D01*
G75*
G02*
X36184000Y-56515294I0J264706D01*
G01*
G37*
D22*
X37084000Y-58420000D03*
X37084000Y-60960000D03*
X39624000Y-55880000D03*
X39624000Y-58420000D03*
X39624000Y-60960000D03*
%TD*%
D23*
%TO.C,MX1*%
X82169000Y-31115000D03*
X75819000Y-33655000D03*
D24*
X79629000Y-36195000D03*
D22*
X74549000Y-36195000D03*
X84709000Y-36195000D03*
%TD*%
D23*
%TO.C,MX2*%
X82169000Y-50165000D03*
X75819000Y-52705000D03*
D24*
X79629000Y-55245000D03*
D22*
X74549000Y-55245000D03*
X84709000Y-55245000D03*
%TD*%
%TO.C,MX3*%
X84709000Y-74295000D03*
X74549000Y-74295000D03*
D24*
X79629000Y-74295000D03*
D23*
X75819000Y-71755000D03*
X82169000Y-69215000D03*
%TD*%
%TO.C,MX4*%
X82169000Y-88265000D03*
X75819000Y-90805000D03*
D24*
X79629000Y-93345000D03*
D22*
X74549000Y-93345000D03*
X84709000Y-93345000D03*
%TD*%
D23*
%TO.C,MX5*%
X91694000Y-107315000D03*
X85344000Y-109855000D03*
D24*
X89154000Y-112395000D03*
D22*
X84074000Y-112395000D03*
X94234000Y-112395000D03*
D24*
X101054000Y-120635000D03*
X77254000Y-120635000D03*
D25*
X77254000Y-105395000D03*
X101054000Y-105395000D03*
%TD*%
D22*
%TO.C,MX6*%
X103759000Y-36195000D03*
X93599000Y-36195000D03*
D24*
X98679000Y-36195000D03*
D23*
X94869000Y-33655000D03*
X101219000Y-31115000D03*
%TD*%
D22*
%TO.C,MX7*%
X103759000Y-55245000D03*
X93599000Y-55245000D03*
D24*
X98679000Y-55245000D03*
D23*
X94869000Y-52705000D03*
X101219000Y-50165000D03*
%TD*%
%TO.C,MX8*%
X101219000Y-69215000D03*
X94869000Y-71755000D03*
D24*
X98679000Y-74295000D03*
D22*
X93599000Y-74295000D03*
X103759000Y-74295000D03*
%TD*%
%TO.C,MX9*%
X103759000Y-93345000D03*
X93599000Y-93345000D03*
D24*
X98679000Y-93345000D03*
D23*
X94869000Y-90805000D03*
X101219000Y-88265000D03*
%TD*%
%TO.C,MX10*%
X120269000Y-31115000D03*
X113919000Y-33655000D03*
D24*
X117729000Y-36195000D03*
D22*
X112649000Y-36195000D03*
X122809000Y-36195000D03*
%TD*%
D23*
%TO.C,MX11*%
X120269000Y-50165000D03*
X113919000Y-52705000D03*
D24*
X117729000Y-55245000D03*
D22*
X112649000Y-55245000D03*
X122809000Y-55245000D03*
%TD*%
%TO.C,MX12*%
X122809000Y-74295000D03*
X112649000Y-74295000D03*
D24*
X117729000Y-74295000D03*
D23*
X113919000Y-71755000D03*
X120269000Y-69215000D03*
%TD*%
%TO.C,MX13*%
X120269000Y-88265000D03*
X113919000Y-90805000D03*
D24*
X117729000Y-93345000D03*
D22*
X112649000Y-93345000D03*
X122809000Y-93345000D03*
%TD*%
%TO.C,MX14*%
X122809000Y-112395000D03*
X112649000Y-112395000D03*
D24*
X117729000Y-112395000D03*
D23*
X113919000Y-109855000D03*
X120269000Y-107315000D03*
%TD*%
D22*
%TO.C,MX15*%
X141859000Y-36195000D03*
X131699000Y-36195000D03*
D24*
X136779000Y-36195000D03*
D23*
X132969000Y-33655000D03*
X139319000Y-31115000D03*
%TD*%
%TO.C,MX16*%
X139319000Y-59690000D03*
X132969000Y-62230000D03*
D24*
X136779000Y-64770000D03*
D22*
X131699000Y-64770000D03*
X141859000Y-64770000D03*
D24*
X145019000Y-52870000D03*
X145019000Y-76670000D03*
D25*
X129779000Y-76670000D03*
X129779000Y-52870000D03*
%TD*%
%TO.C,MX17*%
X129779000Y-90970000D03*
X129779000Y-114770000D03*
D24*
X145019000Y-114770000D03*
X145019000Y-90970000D03*
D22*
X141859000Y-102870000D03*
X131699000Y-102870000D03*
D24*
X136779000Y-102870000D03*
D23*
X132969000Y-100330000D03*
X139319000Y-97790000D03*
%TD*%
D15*
%TO.C,U1*%
X46228000Y-43815000D03*
D14*
X61468000Y-92075000D03*
X46228000Y-46355000D03*
X61468000Y-89535000D03*
X46228000Y-48895000D03*
X61468000Y-86995000D03*
X46228000Y-51435000D03*
X61468000Y-84455000D03*
X46228000Y-53975000D03*
X61468000Y-81915000D03*
X46228000Y-56515000D03*
X61468000Y-79375000D03*
X46228000Y-59055000D03*
X61468000Y-76835000D03*
X46228000Y-61595000D03*
X61468000Y-74295000D03*
X46228000Y-64135000D03*
X61468000Y-71755000D03*
X46228000Y-66675000D03*
X61468000Y-69215000D03*
X46228000Y-69215000D03*
X61468000Y-66675000D03*
X46228000Y-71755000D03*
X61468000Y-64135000D03*
X46228000Y-74295000D03*
X61468000Y-61595000D03*
X46228000Y-76835000D03*
X61468000Y-59055000D03*
X46228000Y-79375000D03*
X61468000Y-56515000D03*
X46228000Y-81915000D03*
X61468000Y-53975000D03*
X46228000Y-84455000D03*
X61468000Y-51435000D03*
X46228000Y-86995000D03*
X61468000Y-48895000D03*
X46228000Y-89535000D03*
X61468000Y-46355000D03*
X46228000Y-92075000D03*
X61468000Y-43815000D03*
%TD*%
D26*
%TO.C,Y1*%
X40513000Y-76200000D03*
X40513000Y-71320000D03*
%TD*%
M02*
