M48
; DRILL file {KiCad (5.1.6-0-10_14)} date Wednesday, October 14, 2020 at 04:24:03 PM
; FORMAT={-:-/ absolute / inch / decimal}
; #@! TF.CreationDate,2020-10-14T16:24:03+01:00
; #@! TF.GenerationSoftware,Kicad,Pcbnew,(5.1.6-0-10_14)
; #@! TF.FileFunction,NonPlated,1,2,NPTH
FMAT,2
INCH
T1C0.0669
T2C0.0866
T3C0.1201
T4C0.1575
%
G90
G05
T1
X2.935Y-1.425
X3.335Y-1.425
X5.185Y-4.05
X5.585Y-4.05
X4.435Y-4.425
X4.835Y-4.425
X4.435Y-3.675
X4.835Y-3.675
X4.435Y-2.925
X4.835Y-2.925
X4.435Y-2.175
X4.835Y-2.175
X3.31Y-4.425
X3.71Y-4.425
X4.435Y-1.425
X4.835Y-1.425
X5.185Y-2.55
X5.585Y-2.55
X3.685Y-3.675
X4.085Y-3.675
X3.685Y-2.925
X4.085Y-2.925
X2.935Y-3.675
X3.335Y-3.675
X3.685Y-2.175
X4.085Y-2.175
X3.685Y-1.425
X4.085Y-1.425
X2.935Y-2.925
X3.335Y-2.925
X2.935Y-2.175
X3.335Y-2.175
X5.185Y-1.425
X5.585Y-1.425
T2
X5.8Y-1.0
X2.5591Y-4.8
X1.2Y-1.0
X2.5591Y-1.0
X5.8Y-4.8
X1.2Y-4.8
T3
X5.1094Y-3.5815
X5.1094Y-4.5185
X3.0415Y-4.1494
X3.9785Y-4.1494
X5.1094Y-2.0815
X5.1094Y-3.0185
T4
X4.635Y-1.425
X5.385Y-2.55
X5.7094Y-2.0815
X5.7094Y-3.0185
X3.885Y-3.675
X3.885Y-2.925
X3.135Y-3.675
X3.885Y-2.175
X3.885Y-1.425
X3.135Y-2.925
X3.135Y-2.175
X5.385Y-1.425
X3.135Y-1.425
X5.385Y-4.05
X5.7094Y-3.5815
X5.7094Y-4.5185
X4.635Y-4.425
X4.635Y-3.675
X4.635Y-2.925
X4.635Y-2.175
X3.0415Y-4.7494
X3.51Y-4.425
X3.9785Y-4.7494
T0
M30
