<?xml version="1.0" encoding="UTF-8" standalone="no"?>
<svg
   xmlns:dc="http://purl.org/dc/elements/1.1/"
   xmlns:cc="http://creativecommons.org/ns#"
   xmlns:rdf="http://www.w3.org/1999/02/22-rdf-syntax-ns#"
   xmlns:svg="http://www.w3.org/2000/svg"
   xmlns="http://www.w3.org/2000/svg"
   viewBox="0 0 566.92914 566.92914"
   width="150mm"
   height="150mm"
   version="1.1"
   id="svg60">
  <metadata
     id="metadata64">
    <rdf:RDF>
      <cc:Work
         rdf:about="">
        <dc:format>image/svg+xml</dc:format>
        <dc:type
           rdf:resource="http://purl.org/dc/dcmitype/StillImage" />
        <dc:title></dc:title>
      </cc:Work>
    </rdf:RDF>
  </metadata>
  <defs
     id="defs22">
    <marker
       id="DistanceX"
       orient="auto"
       refX="0"
       refY="0"
       style="overflow:visible">
      <path
         d="M 3,-3 -3,3 M 0,-5 V 5"
         style="stroke:#000000;stroke-width:0.5"
         id="path10" />
    </marker>
    <pattern
       id="Hatch"
       patternUnits="userSpaceOnUse"
       width="8"
       height="8"
       x="0"
       y="0">
      <path
         d="M8 4 l-4,4"
         stroke="#000000"
         stroke-width="0.25"
         linecap="square"
         id="path13" />
      <path
         d="M6 2 l-4,4"
         stroke="#000000"
         stroke-width="0.25"
         linecap="square"
         id="path15" />
      <path
         d="M4 0 l-4,4"
         stroke="#000000"
         stroke-width="0.25"
         linecap="square"
         id="path17" />
    </pattern>
    <symbol
       id="*MODEL_SPACE" />
    <symbol
       id="*PAPER_SPACE" />
  </defs>
  <g
     id="g24" />
  <g
     id="g26" />
  <g
     id="g56">
    <path
       d="M 20.5,49.3 V 394.9"
       style="fill:none;stroke:#ff0000"
       id="path28" />
    <path
       d="M 49.299996,20.5 A 28.8,28.8 0 0 0 20.5,49.3"
       style="fill:none;stroke:#ff0000"
       id="path30" />
    <path
       d="m 20.5,394.9 a 28.8,28.8 0 0 0 28.799996,28.8"
       style="fill:none;stroke:#ff0000"
       id="path32" />
    <path
       d="M 160.75052,20.5 H 49.299996"
       style="fill:none;stroke:#ff0000"
       id="path34" />
    <path
       d="M 49.299996,423.7 H 161.28895"
       style="fill:none;stroke:#ff0000"
       id="path36" />
    <path
       d="m 189.3693,49.3 a 28.8,28.8 0 0 0 -28.8,-28.8"
       style="fill:none;stroke:#ff0000"
       id="path38" />
    <path
       d="m 160.5693,423.7 a 28.8,28.8 0 0 0 28.8,-28.8"
       style="fill:none;stroke:#ff0000"
       id="path40" />
    <path
       d="M 189.3693,394.9 V 49.3"
       style="fill:none;stroke:#ff0000"
       id="path42" />
    <path
       d="m 43.857476,404.5 a 4.15748,4.15748 0 1 0 -8.314956,0 4.15748,4.15748 0 1 0 8.314956,0 z"
       style="fill:none;stroke:#ff0000"
       id="path44" />
    <path
       d="m 174.32678,404.5 a 4.157485,4.157485 0 1 0 -8.31497,0 4.157485,4.157485 0 1 0 8.31497,0 z"
       style="fill:none;stroke:#ff0000"
       id="path46" />
    <path
       d="m 174.32678,404.5 a 4.15748,4.15748 0 1 0 -8.31496,0 4.15748,4.15748 0 1 0 8.31496,0 z"
       style="fill:none;stroke:#ff0000"
       id="path48" />
    <path
       d="m 43.857476,39.7 a 4.15748,4.15748 0 1 0 -8.314956,0 4.15748,4.15748 0 1 0 8.314956,0 z"
       style="fill:none;stroke:#ff0000"
       id="path50" />
    <path
       d="m 174.32678,39.7 a 4.157485,4.157485 0 1 0 -8.31497,0 4.157485,4.157485 0 1 0 8.31497,0 z"
       style="fill:none;stroke:#ff0000"
       id="path52" />
    <path
       d="m 174.32678,39.7 a 4.15748,4.15748 0 1 0 -8.31496,0 4.15748,4.15748 0 1 0 8.31496,0 z"
       style="fill:none;stroke:#ff0000"
       id="path54" />
  </g>
  <desc
     id="desc58">test.dxf - scale = 1.000000, origin = (0.000000, 0.000000), method = manual</desc>
</svg>
